HIERARCHY
ROOT root
{
  OFFSET 0 93.2929 0
  CHANNELS 6 Xposition Yposition Zposition Zrotation Xrotation Yrotation
  JOINT torso_1
  {
    OFFSET 0 5.07867 -1.15138
    CHANNELS 6 Xposition Yposition Zposition Zrotation Xrotation Yrotation
    JOINT torso_2
    {
      OFFSET 0 5.61661 1.07143
      CHANNELS 6 Xposition Yposition Zposition Zrotation Xrotation Yrotation
      JOINT torso_3
      {
        OFFSET -1.02604e-17 5.98978 0.11501
        CHANNELS 6 Xposition Yposition Zposition Zrotation Xrotation Yrotation
        JOINT torso_4
        {
          OFFSET -1.10457e-17 6.50583 -0.443523
          CHANNELS 6 Xposition Yposition Zposition Zrotation Xrotation Yrotation
          JOINT torso_5
          {
            OFFSET -1.97295e-17 7.60548 -1.50593
            CHANNELS 6 Xposition Yposition Zposition Zrotation Xrotation Yrotation
            JOINT torso_6
            {
              OFFSET -2.53307e-17 9.49737 -0.914492
              CHANNELS 6 Xposition Yposition Zposition Zrotation Xrotation Yrotation
              JOINT torso_7
              {
                OFFSET -2.90401e-17 10.5513 1.57691
                CHANNELS 6 Xposition Yposition Zposition Zrotation Xrotation Yrotation
                JOINT neck_1
                {
                  OFFSET -1.29193e-17 4.78644 0.715339
                  CHANNELS 6 Xposition Yposition Zposition Zrotation Xrotation Yrotation
                  JOINT neck_2
                  {
                    OFFSET -1.8116e-17 4.82109 0.421791
                    CHANNELS 6 Xposition Yposition Zposition Zrotation Xrotation Yrotation
                    JOINT head
                    {
                      OFFSET -2.00958e-17 4.83041 0.765062
                      CHANNELS 6 Xposition Yposition Zposition Zrotation Xrotation Yrotation
                      End Site
                      {
                        OFFSET 0 0.1 0
                      }
                    }
                  }
                }
                JOINT l_shoulder
                {
                  OFFSET 1.23299 -7.60731 7.53374
                  CHANNELS 6 Xposition Yposition Zposition Zrotation Xrotation Yrotation
                  JOINT l_up_arm
                  {
                    OFFSET 12.9547 3.2495 -3.26872
                    CHANNELS 6 Xposition Yposition Zposition Zrotation Xrotation Yrotation
                    JOINT l_low_arm
                    {
                      OFFSET 29.2081 0.0598081 0.137039
                      CHANNELS 6 Xposition Yposition Zposition Zrotation Xrotation Yrotation
                      JOINT l_hand
                      {
                        OFFSET 24.234 0.0496219 0.113701
                        CHANNELS 6 Xposition Yposition Zposition Zrotation Xrotation Yrotation
                        End Site
                        {
                          OFFSET 0.1 0 0
                        }
                      }
                    }
                  }
                }
                JOINT r_shoulder
                {
                  OFFSET -1.23299 -7.60729 7.53365
                  CHANNELS 6 Xposition Yposition Zposition Zrotation Xrotation Yrotation
                  JOINT r_up_arm
                  {
                    OFFSET -12.9547 3.2495 -3.26872
                    CHANNELS 6 Xposition Yposition Zposition Zrotation Xrotation Yrotation
                    JOINT r_low_arm
                    {
                      OFFSET -29.2081 0.0598081 0.137039
                      CHANNELS 6 Xposition Yposition Zposition Zrotation Xrotation Yrotation
                      JOINT r_hand
                      {
                        OFFSET -24.234 0.0496218 0.113702
                        CHANNELS 6 Xposition Yposition Zposition Zrotation Xrotation Yrotation
                        End Site
                        {
                          OFFSET -0.1 0 0
                        }
                      }
                    }
                  }
                }
              }
            }
          }
        }
      }
    }
  }
  JOINT l_up_leg
  {
    OFFSET 9.23673 -4.20556 2.0327
    CHANNELS 6 Xposition Yposition Zposition Zrotation Xrotation Yrotation
    JOINT l_low_leg
    {
      OFFSET -0.852353 -38.7721 -0.655187
      CHANNELS 6 Xposition Yposition Zposition Zrotation Xrotation Yrotation
      JOINT l_foot
      {
        OFFSET -2.32622 -40.4017 -6.04875
        CHANNELS 6 Xposition Yposition Zposition Zrotation Xrotation Yrotation
        JOINT l_toes
        {
          OFFSET 0.779096 -9.8844 12.4959
          CHANNELS 6 Xposition Yposition Zposition Zrotation Xrotation Yrotation
          End Site
          {
            OFFSET 0 0 0.1
          }
        }
      }
    }
  }
  JOINT r_up_leg
  {
    OFFSET -9.23673 -4.20556 2.0327
    CHANNELS 6 Xposition Yposition Zposition Zrotation Xrotation Yrotation
    JOINT r_low_leg
    {
      OFFSET 0.852353 -38.7721 -0.655187
      CHANNELS 6 Xposition Yposition Zposition Zrotation Xrotation Yrotation
      JOINT r_foot
      {
        OFFSET 2.32622 -40.4017 -6.04875
        CHANNELS 6 Xposition Yposition Zposition Zrotation Xrotation Yrotation
        JOINT r_toes
        {
          OFFSET -0.779096 -9.8844 12.4959
          CHANNELS 6 Xposition Yposition Zposition Zrotation Xrotation Yrotation
          End Site
          {
            OFFSET 0 0 0.1
          }
        }
      }
    }
  }
}
MOTION
Frames: 6
Frame Time: 0.016667
3.42551 95.6905 14.5352 -2.73304 36.357 -2.38267 0 5.07867 -1.15138 0.488464 -9.69275 -1.25459 0 5.61661 1.07143 1.03672 -9.21787 -1.58465 -1.02604e-17 5.98978 0.11501 1.16612 -5.39788 -1.60299 -1.10457e-17 6.50583 -0.443523 1.43415 1.02313 -1.6335 -1.97295e-17 7.60548 -1.50593 1.0251 5.16334 -1.61725 -2.53307e-17 9.49737 -0.914492 0.390608 6.74816 -1.87462 -2.90401e-17 10.5513 1.57691 0.188481 0.618729 -0.776815 -1.29193e-17 4.78644 0.715339 1.15951 8.77085 6.4069 -1.8116e-17 4.82109 0.421791 9.00896e-05 -11.6185 3.02029 -2.00958e-17 4.83041 0.765062 -1.1023 -18.9748 5.18737 1.23299 -7.60731 7.53374 18.6913 -3.4279 10.2903 12.9547 3.2495 -3.26872 -77.8239 24.9106 -11.606 29.2081 0.0598081 0.137039 11.5487 -15.2736 -106.546 24.234 0.0496219 0.113701 2.86234 9.19557 -0.0538907 -1.23299 -7.60729 7.53365 -29.0942 -3.98342 -11.2662 -12.9547 3.2495 -3.26872 69.5875 42.985 47.3189 -29.2081 0.0598081 0.137039 -12.0296 -12.2824 91.7938 -24.234 0.0496218 0.113702 2.12251 2.51895 -3.06482 9.23673 -4.20556 2.0327 5.68048 -56.6352 -17.4916 -0.852353 -38.7721 -0.655187 -1.7522 6.53496 -0.0141469 -2.32622 -40.4017 -6.04875 -8.75888 17.7299 16.7144 0.779096 -9.8844 12.4959 8.19987e-16 -7.57867e-16 -2.48481e-17 -9.23673 -4.20556 2.0327 6.1736 -39.4099 23.4009 0.852353 -38.7721 -0.655187 1.18313 4.41765 0.0315081 2.32622 -40.4017 -6.04875 3.27741 11.2802 -15.167 -0.779096 -9.8844 12.4959 5.66041e-16 -6.10582e-16 -1.27986e-14 
3.50861 95.7985 16.102 -3.21564 34.6632 -2.04359 0 5.07867 -1.15138 0.78103 -8.93166 -1.14449 0 5.61661 1.07143 1.26948 -8.39196 -1.42819 -1.02604e-17 5.98978 0.11501 1.30313 -4.84687 -1.47955 -1.10457e-17 6.50583 -0.443523 1.46387 1.09127 -1.52778 -1.97295e-17 7.60548 -1.50593 0.991565 4.87101 -1.54328 -2.53307e-17 9.49737 -0.914492 0.307831 6.24656 -1.74523 -2.90401e-17 10.5513 1.57691 0.167656 0.675766 -0.781226 -1.29193e-17 4.78644 0.715339 1.02071 8.44211 5.13939 -1.8116e-17 4.82109 0.421791 -0.554292 -12.3687 2.40721 -2.00958e-17 4.83041 0.765062 0.110529 -18.7326 6.18019 1.23299 -7.60731 7.53374 18.5226 -3.25244 9.72555 12.9547 3.2495 -3.26872 -79.2713 24.6272 -10.8317 29.2081 0.0598081 0.137039 11.4471 -15.5925 -108.181 24.234 0.0496219 0.113701 2.70446 11.575 -2.75402 -1.23299 -7.60729 7.53365 -28.965 -3.86691 -11.0108 -12.9547 3.2495 -3.26872 67.8132 42.9314 47.8293 -29.2081 0.0598081 0.137039 -11.9826 -13.0586 95.5535 -24.234 0.0496218 0.113702 1.00667 4.19561 -1.9 9.23673 -4.20556 2.0327 6.53381 -54.6972 -16.7252 -0.852353 -38.7721 -0.655187 -0.668053 2.49499 -0.0290063 -2.32622 -40.4017 -6.04875 -11.8029 22.7289 17.8172 0.779096 -9.8844 12.4959 5.10442e-16 -7.70764e-16 -1.19504e-17 -9.23673 -4.20556 2.0327 6.3024 -37.4533 23.4978 0.852353 -38.7721 -0.655187 1.51428 5.651 0.0239729 2.32622 -40.4017 -6.04875 3.32067 11.4419 -15.1692 -0.779096 -9.8844 12.4959 -1.5827e-15 -5.19059e-16 -1.27038e-14 
3.60116 95.8139 17.7053 -3.38074 33.2814 -1.63162 0 5.07867 -1.15138 0.880061 -8.47205 -0.946624 0 5.61661 1.07143 1.30738 -7.79398 -1.17291 -1.02604e-17 5.98978 0.11501 1.29421 -4.3901 -1.22201 -1.10457e-17 6.50583 -0.443523 1.38135 1.24634 -1.27057 -1.97295e-17 7.60548 -1.50593 0.925182 4.75283 -1.31446 -2.53307e-17 9.49737 -0.914492 0.298651 6.08086 -1.47178 -2.90401e-17 10.5513 1.57691 0.145346 0.657139 -0.707542 -1.29193e-17 4.78644 0.715339 0.948064 6.89107 4.25479 -1.8116e-17 4.82109 0.421791 -0.364642 -12.3414 1.997 -2.00958e-17 4.83041 0.765062 0.309979 -18.1069 5.50792 1.23299 -7.60731 7.53374 16.8556 -3.33273 8.64522 12.9547 3.2495 -3.26872 -78.0399 25.6888 -12.0697 29.2081 0.0598081 0.137039 11.2793 -16.059 -110.607 24.234 0.0496219 0.113701 2.65645 14.107 -3.37823 -1.23299 -7.60729 7.53365 -26.557 -3.93519 -9.72576 -12.9547 3.2495 -3.26872 67.2851 40.7598 44.9344 -29.2081 0.0598081 0.137039 -11.8936 -13.7658 99.0092 -24.234 0.0496218 0.113702 1.16397 6.66203 0.247914 9.23673 -4.20556 2.0327 6.44068 -53.4221 -16.4734 -0.852353 -38.7721 -0.655187 0.0196509 -0.0733237 0.00129245 -2.32622 -40.4017 -6.04875 -13.1959 26.7701 18.4585 0.779096 -9.8844 12.4959 -6.82266e-16 -8.23685e-16 4.09702e-17 -9.23673 -4.20556 2.0327 6.18085 -36.0482 23.5184 0.852353 -38.7721 -0.655187 1.99338 7.42871 0.000430269 2.32622 -40.4017 -6.04875 2.59702 11.2038 -14.9512 -0.779096 -9.8844 12.4959 -1.71619e-15 -5.14414e-16 -1.26932e-14 
3.74415 95.7126 19.3494 -3.4217 32.0307 -1.04817 0 5.07867 -1.15138 0.831494 -8.06176 -0.76544 0 5.61661 1.07143 1.2232 -7.27724 -0.965828 -1.02604e-17 5.98978 0.11501 1.20632 -4.05813 -1.01429 -1.10457e-17 6.50583 -0.443523 1.26452 1.244 -1.06608 -1.97295e-17 7.60548 -1.50593 0.853632 4.4812 -1.12386 -2.53307e-17 9.49737 -0.914492 0.302951 5.75612 -1.25484 -2.90401e-17 10.5513 1.57691 0.120614 0.67759 -0.630987 -1.29193e-17 4.78644 0.715339 0.837288 5.40516 3.22998 -1.8116e-17 4.82109 0.421791 -0.0141278 -11.8629 1.51219 -2.00958e-17 4.83041 0.765062 0.637697 -17.1719 5.00102 1.23299 -7.60731 7.53374 15.8111 -3.28807 7.95276 12.9547 3.2495 -3.26872 -75.6918 26.1815 -13.5297 29.2081 0.0598081 0.137039 11.0637 -16.5791 -113.366 24.234 0.0496219 0.113701 2.20606 14.9029 -3.26087 -1.23299 -7.60729 7.53365 -24.4707 -3.89523 -8.72651 -12.9547 3.2495 -3.26872 66.1479 38.6381 44.0453 -29.2081 0.0598081 0.137039 -11.7798 -14.3776 102.035 -24.234 0.0496218 0.113702 1.34095 8.4914 0.7183 9.23673 -4.20556 2.0327 5.66433 -52.3156 -16.3831 -0.852353 -38.7721 -0.655187 0.35308 -1.31622 0.0270329 -2.32622 -40.4017 -6.04875 -13.6267 29.4642 18.629 0.779096 -9.8844 12.4959 -1.87497e-15 -8.82581e-16 9.9866e-17 -9.23673 -4.20556 2.0327 5.8533 -35.3228 23.2191 0.852353 -38.7721 -0.655187 2.76826 10.2792 -0.0691014 2.32622 -40.4017 -6.04875 1.66965 10.6083 -14.6026 -0.779096 -9.8844 12.4959 -4.18963e-15 -4.06295e-16 -1.25911e-14 
3.94731 95.4996 21.0166 -3.63499 30.6927 -0.438234 0 5.07867 -1.15138 0.71506 -7.79419 -0.54444 0 5.61661 1.07143 1.09096 -7.01307 -0.73002 -1.02604e-17 5.98978 0.11501 1.08602 -4.01682 -0.780037 -1.10457e-17 6.50583 -0.443523 1.13633 0.97107 -0.838701 -1.97295e-17 7.60548 -1.50593 0.787489 3.99312 -0.904881 -2.53307e-17 9.49737 -0.914492 0.33018 5.14697 -1.03785 -2.90401e-17 10.5513 1.57691 0.155874 0.802998 -0.623419 -1.29193e-17 4.78644 0.715339 0.670553 6.96996 2.4824 -1.8116e-17 4.82109 0.421791 0.586907 -11.665 1.15685 -2.00958e-17 4.83041 0.765062 0.53306 -17.3972 3.94391 1.23299 -7.60731 7.53374 18.2743 -3.15672 9.01075 12.9547 3.2495 -3.26872 -73.7401 27.3581 -15.5139 29.2081 0.0598081 0.137039 10.8738 -16.9842 -115.562 24.234 0.0496219 0.113701 2.07546 12.6687 -2.41009 -1.23299 -7.60729 7.53365 -25.8116 -3.70079 -9.69699 -12.9547 3.2495 -3.26872 69.1378 37.5971 44.4715 -29.2081 0.0598081 0.137039 -11.6576 -14.8891 104.597 -24.234 0.0496218 0.113702 3.31147 9.4585 -1.03747 9.23673 -4.20556 2.0327 4.81437 -51.045 -16.8313 -0.852353 -38.7721 -0.655187 0.339299 -1.2649 0.0258266 -2.32622 -40.4017 -6.04875 -13.3896 31.152 18.3969 0.779096 -9.8844 12.4959 -3.84963e-16 -8.16198e-16 3.3483e-17 -9.23673 -4.20556 2.0327 5.69192 -35.3721 22.3428 0.852353 -38.7721 -0.655187 3.95242 14.5483 -0.249238 2.32622 -40.4017 -6.04875 1.16963 10.1674 -14.3223 -0.779096 -9.8844 12.4959 -3.6131e-15 -4.34459e-16 -1.26132e-14 
4.26157 95.1203 22.4808 -3.99063 29.8734 0.27065 0 5.07867 -1.15138 0.504941 -7.32302 -0.526587 0 5.61661 1.07143 0.880967 -6.62224 -0.733977 -1.02604e-17 5.98978 0.11501 0.909321 -3.91363 -0.785523 -1.10457e-17 6.50583 -0.443523 0.989326 0.652466 -0.850255 -1.97295e-17 7.60548 -1.50593 0.682492 3.42902 -0.900183 -2.53307e-17 9.49737 -0.914492 0.26945 4.4252 -1.02959 -2.90401e-17 10.5513 1.57691 0.173708 0.94781 -0.631945 -1.29193e-17 4.78644 0.715339 0.666124 7.71624 2.11024 -1.8116e-17 4.82109 0.421791 1.08408 -11.877 0.971793 -2.00958e-17 4.83041 0.765062 1.15075 -17.0324 3.70803 1.23299 -7.60731 7.53374 18.869 -2.9519 9.50455 12.9547 3.2495 -3.26872 -72.4028 27.8629 -16.7683 29.2081 0.0598081 0.137039 10.6799 -17.3591 -117.635 24.234 0.0496219 0.113701 1.45825 13.3471 -2.06316 -1.23299 -7.60729 7.53365 -26.9669 -3.4559 -10.3668 -12.9547 3.2495 -3.26872 70.5979 36.9532 44.4119 -29.2081 0.0598081 0.137039 -11.5416 -15.2975 106.669 -24.234 0.0496218 0.113702 3.22689 9.66413 -0.319302 9.23673 -4.20556 2.0327 3.85784 -50.059 -18.4922 -0.852353 -38.7721 -0.655187 0.122526 -0.457066 0.00846703 -2.32622 -40.4017 -6.04875 -12.5981 30.7995 17.9353 0.779096 -9.8844 12.4959 5.0446e-15 -5.79849e-16 -2.02865e-16 -9.23673 -4.20556 2.0327 5.3415 -37.2438 20.2058 0.852353 -38.7721 -0.655187 5.7519 20.7476 -0.687065 2.32622 -40.4017 -6.04875 1.32034 9.01677 -14.3464 -0.779096 -9.8844 12.4959 1.80422e-15 -6.65397e-16 -1.28502e-14 
